# Blender v2.76 (sub 0) OBJ File: 'blackkey.blend'
# www.blender.org
o C#_Cube.009
v -0.075000 0.135394 -0.002159
v -0.075000 0.135394 -0.213121
v -0.075000 -0.000606 -0.002159
v -0.075000 -0.000606 -0.235267
v -0.075000 0.108501 -0.235267
v -0.000553 0.135394 -0.002159
v -0.000553 0.135394 -0.213121
v -0.000553 -0.000606 -0.002159
v -0.000553 -0.000606 -0.235267
v -0.000553 0.108501 -0.235267
vt 0.645807 0.553150
vt 0.645807 0.000201
vt 0.323205 0.500619
vt 0.322803 0.000201
vt 0.322803 0.553150
vt 0.000201 0.500619
vt 0.353790 0.812363
vt 0.177197 0.812363
vt 0.177197 0.553553
vt 0.999799 0.500619
vt 0.823205 0.500619
vt 0.823205 0.000201
vt 0.176795 0.553553
vt 0.000201 0.553553
vt 0.000201 0.876155
vt 0.822803 0.000201
vt 0.646209 0.000201
vt 0.646209 0.553150
vt 0.530786 0.617345
vt 0.354193 0.617345
vt 0.354193 0.553553
vt 0.323205 0.000201
vt 0.386997 0.553150
vt 0.063993 0.553150
vt 0.000201 0.000201
vt 0.353791 0.553553
vt 0.999799 0.000201
vt 0.176795 0.876155
vt 0.822803 0.553150
vt 0.530786 0.553553
vn -0.577300 -0.577300 -0.577300
vn -0.577300 -0.577300 0.577300
vn -0.622500 0.707800 -0.334000
vn 0.577300 -0.577300 0.577300
vn 0.577300 -0.577300 -0.577300
vn 0.622500 0.707800 -0.334000
vn -0.638400 0.259900 -0.724500
vn 0.638400 0.259900 -0.724500
vn -0.577300 0.577300 0.577300
vn 0.577300 0.577300 0.577300
s 1
f 4/1/1 3/2/2 2/3/3
f 8/4/4 9/5/5 7/6/6
f 5/7/7 10/8/8 9/9/5
f 1/10/9 6/11/10 7/12/6
f 3/13/2 8/14/4 6/15/10
f 4/16/1 9/17/5 8/18/4
f 2/19/3 7/20/6 10/21/8
f 1/22/9 2/3/3 3/2/2
f 5/23/7 4/1/1 2/3/3
f 10/24/8 7/6/6 9/5/5
f 6/25/10 8/4/4 7/6/6
f 4/26/1 5/7/7 9/9/5
f 2/27/3 1/10/9 7/12/6
f 1/28/9 3/13/2 6/15/10
f 3/29/2 4/16/1 8/18/4
f 5/30/7 2/19/3 10/21/8
