# Blender v2.76 (sub 0) OBJ File: 'bskey.blend'
# www.blender.org
o D_Cube.002
v -0.097658 0.100493 -0.238776
v -0.097960 0.000860 -0.523883
v -0.070092 0.001250 0.000158
v -0.097960 0.104927 -0.523883
v -0.070092 0.105265 -0.000626
v -0.070092 0.100493 -0.238554
v -0.070092 0.000860 -0.238554
v -0.097658 -0.003574 -0.238776
v 0.000005 0.001012 -0.523883
v -0.035216 0.000673 -0.001617
v 0.000005 0.105078 -0.523883
v -0.034948 0.104689 -0.002401
v -0.034948 0.100493 -0.238554
v -0.033599 0.001012 -0.238554
v 0.000005 0.100493 -0.238776
v 0.000005 -0.003423 -0.238776
vn -0.008100 0.000000 1.000000
vn -1.000000 0.000000 0.000000
vn 1.000000 -0.002600 0.000000
vn 0.006600 0.000000 1.000000
vn 1.000000 0.000000 0.000000
vn -1.000000 0.000000 0.001100
vn -0.000000 0.000000 -1.000000
vn 0.001500 -1.000000 0.000200
vn 0.000000 0.999900 0.015500
vn 0.050900 0.007400 0.998700
vn 0.999900 0.013600 0.006800
vn 0.006400 0.000100 1.000000
vn 0.158900 -0.987200 -0.015500
vn -0.016400 -0.999900 0.001600
vn -0.130900 -0.991300 -0.015400
vn 0.004200 -1.000000 -0.001400
vn 0.004200 -1.000000 -0.000400
vn -0.000100 0.999900 0.015500
vn 0.015400 0.999700 -0.020100
vn 0.000100 0.999900 0.016100
vn 0.000000 0.999800 -0.017800
vn -0.001500 0.999900 0.015900
vn 0.050600 0.007500 0.998700
s off
f 7//1 6//1 1//1
f 6//2 7//2 3//2
f 13//3 12//3 10//3
f 14//4 16//4 15//4
f 9//5 11//5 15//5
f 1//6 4//6 2//6
f 9//7 2//7 4//7
f 2//8 9//8 14//8
f 6//9 13//9 4//9
f 3//10 10//10 12//10
f 8//1 7//1 1//1
f 5//2 6//2 3//2
f 14//11 13//11 10//11
f 13//12 14//12 15//12
f 16//5 9//5 15//5
f 8//6 1//6 2//6
f 11//7 9//7 4//7
f 7//13 8//13 2//13
f 10//14 3//14 7//14
f 9//15 16//15 14//15
f 14//16 10//16 7//16
f 7//17 2//17 14//17
f 4//18 1//18 6//18
f 6//19 5//19 12//19
f 13//20 15//20 11//20
f 6//21 12//21 13//21
f 11//22 4//22 13//22
f 5//23 3//23 12//23
