# Blender v2.76 (sub 0) OBJ File: 'bskey.blend'
# www.blender.org
o D_Cube.002
v -0.097658 0.100493 -0.238776
v -0.097960 0.000860 -0.523883
v -0.070092 0.001250 0.000158
v -0.097960 0.104927 -0.523883
v -0.070092 0.105265 -0.000626
v -0.070092 0.100493 -0.238554
v -0.070092 0.000860 -0.238554
v -0.097658 -0.003574 -0.238776
v 0.000005 0.001012 -0.523883
v -0.035216 0.000673 -0.001617
v 0.000005 0.105078 -0.523883
v -0.034948 0.104689 -0.002401
v -0.034948 0.100493 -0.238554
v -0.033599 0.001012 -0.238554
v 0.000005 0.100493 -0.238776
v 0.000005 -0.003423 -0.238776
vt 0.000000 0.000000
vt 1.000000 0.000000
vt 1.000000 1.000000
vt 0.000000 1.000000
vt 1.000000 0.500000
vt 0.853553 0.146447
vt 0.146447 0.146447
vt 0.853553 0.853553
vt 0.500000 0.000000
vt 0.146447 0.853553
vt 0.500000 1.000000
vt 0.000000 0.500000
vn -0.259400 -0.907600 0.330100
vn -0.306900 0.901500 0.305000
vn -0.579900 0.572900 0.579100
vn -0.567500 -0.567100 0.596900
vn 0.305500 0.902500 0.303400
vn 0.594700 0.582400 0.554200
vn 0.584600 -0.583400 0.563800
vn 0.272400 -0.903900 0.329600
vn 0.541800 -0.622800 0.564400
vn 0.579900 0.572600 0.579500
vn 0.577500 -0.576700 -0.577800
vn 0.576100 0.582800 -0.573000
vn -0.577200 0.581800 -0.573000
vn -0.577100 -0.577600 -0.577300
vn -0.533500 -0.631300 0.562900
vn -0.559200 0.587900 0.584500
s 1
f 7/1/1 6/2/2 1/3/3
f 6/1/2 7/2/1 3/3/4
f 13/1/5 12/2/6 10/3/7
f 14/1/8 16/2/9 15/3/10
f 9/2/11 11/3/12 15/4/10
f 1/2/3 4/3/13 2/4/14
f 9/1/11 2/2/14 4/3/13
f 2/5/14 9/6/11 14/7/8
f 6/8/2 13/9/5 4/10/13
f 3/1/4 10/2/7 12/3/6
f 8/4/15 7/1/1 1/3/3
f 5/4/16 6/1/2 3/3/4
f 14/4/8 13/1/5 10/3/7
f 13/4/5 14/1/8 15/3/10
f 16/1/9 9/2/11 15/4/10
f 8/1/15 1/2/3 2/4/14
f 11/4/12 9/1/11 4/3/13
f 7/11/1 8/8/15 2/5/14
f 10/12/7 3/10/4 7/11/1
f 9/6/11 16/9/9 14/7/8
f 14/7/8 10/12/7 7/11/1
f 7/11/1 2/5/14 14/7/8
f 4/10/13 1/11/3 6/8/2
f 6/8/2 5/5/16 12/6/6
f 13/9/5 15/7/10 11/12/12
f 6/8/2 12/6/6 13/9/5
f 11/12/12 4/10/13 13/9/5
f 5/4/16 3/1/4 12/3/6
