# Blender v2.76 (sub 0) OBJ File: 'lskey.blend'
# www.blender.org
o E_Cube.003
v -0.105205 0.002054 -0.523505
v -0.105205 0.002054 -0.001594
v -0.105205 0.106122 -0.523505
v -0.105205 0.106122 -0.001594
v 0.000003 0.002053 -0.523505
v -0.036077 0.002054 -0.001594
v 0.000003 0.106122 -0.523505
v -0.036077 0.106122 -0.001594
v -0.036077 0.106122 -0.239031
v -0.036077 0.002054 -0.239031
v 0.000000 0.106122 -0.239031
v 0.000000 0.002053 -0.239031
vt 0.604825 0.503001
vt 0.669431 0.510079
vt 0.669431 0.343967
vt 0.501571 0.336889
vt 0.501571 0.503001
vt 0.604415 0.503001
vt 0.833683 0.833273
vt 0.999795 0.833273
vt 0.999795 0.000205
vt 0.166707 0.715881
vt 0.166707 0.336889
vt 0.332819 0.336889
vt 0.166297 0.790664
vt 0.000205 0.793255
vt 0.000205 0.339480
vt 0.333229 0.503001
vt 0.333229 0.336889
vt 0.501161 0.336889
vt 0.379198 0.233635
vt 0.833273 0.336479
vt 0.833273 0.168547
vt 0.379198 0.065293
vt 0.833273 0.168137
vt 0.000205 0.168137
vt 0.604825 0.336889
vt 0.604415 0.336889
vt 0.833683 0.000205
vt 0.332819 0.715881
vt 0.166297 0.336889
vt 0.501161 0.503001
vt 0.379553 0.169029
vt 0.000205 0.233635
vt 0.000205 0.336479
vt 0.379553 0.000687
vt 0.833273 0.000205
vt 0.000205 0.065293
vn 0.301500 -0.904500 0.301500
vn 0.577300 -0.577300 0.577300
vn 0.577300 0.577300 0.577300
vn -0.577300 0.577300 0.577300
vn -0.577300 -0.577300 0.577300
vn -0.577300 0.577300 -0.577300
vn -0.577300 -0.577300 -0.577300
vn 0.301500 0.904500 0.301500
vn 0.577300 -0.577300 -0.577300
vn 0.577300 0.577300 -0.577300
s 1
f 10/1/1 12/2/2 11/3/3
f 4/4/4 2/5/5 6/6/2
f 3/7/6 1/8/7 2/9/5
f 9/10/8 8/11/3 6/12/2
f 5/13/9 7/14/10 11/15/3
f 1/16/7 3/17/6 7/18/10
f 10/19/1 1/20/7 5/21/9
f 9/22/8 3/23/6 4/24/4
f 9/25/8 10/1/1 11/3/3
f 8/26/3 4/4/4 6/6/2
f 4/27/4 3/7/6 2/9/5
f 10/28/1 9/10/8 6/12/2
f 12/29/2 5/13/9 11/15/3
f 5/30/9 1/16/7 7/18/10
f 5/21/9 12/31/2 10/19/1
f 10/19/1 6/32/2 2/33/5
f 2/33/5 1/20/7 10/19/1
f 9/22/8 11/34/3 7/35/10
f 4/24/4 8/36/3 9/22/8
f 7/35/10 3/23/6 9/22/8
