# Blender v2.76 (sub 0) OBJ File: 'bskey.blend'
# www.blender.org
o D_Cube.002
v 0.001622 0.100493 -0.238776
v 0.001320 0.000860 -0.523883
v 0.029187 0.001250 0.000158
v 0.001320 0.104927 -0.523883
v 0.029187 0.105265 -0.000626
v 0.029187 0.100493 -0.238554
v 0.029187 0.000860 -0.238554
v 0.001622 -0.003574 -0.238776
v 0.099283 0.001012 -0.523883
v 0.064062 0.000673 -0.001617
v 0.099283 0.105078 -0.523883
v 0.064331 0.104689 -0.002401
v 0.064331 0.100493 -0.238554
v 0.065680 0.001012 -0.238554
v 0.099283 0.100493 -0.238776
v 0.099283 -0.003423 -0.238776
vn 0.008100 0.000000 -1.000000
vn 1.000000 -0.000000 0.000000
vn -0.999900 -0.013600 -0.006800
vn -0.006400 -0.000100 -1.000000
vn -1.000000 0.000000 0.000000
vn 1.000000 0.000000 -0.001100
vn -0.000000 0.000000 1.000000
vn -0.004200 1.000000 0.000400
vn 0.000000 -0.999900 -0.015500
vn -1.000000 0.002600 -0.000000
vn -0.006600 0.000000 -1.000000
vn 0.016400 0.999900 -0.001600
vn -0.158900 0.987200 0.015500
vn 0.130900 0.991300 0.015400
vn -0.004200 1.000000 0.001400
vn -0.001500 1.000000 -0.000200
vn 0.000100 -0.999900 -0.015500
vn 0.001500 -0.999900 -0.015900
vn 0.000000 -0.999800 0.017800
vn -0.000100 -0.999900 -0.016100
vn -0.015400 -0.999700 0.020100
s off
f 7//1 8//1 1//1
f 6//2 5//2 3//2
f 13//3 14//3 10//3
f 14//4 13//4 15//4
f 15//5 11//5 9//5
f 2//6 4//6 1//6
f 9//7 11//7 4//7
f 7//8 14//8 2//8
f 4//9 13//9 6//9
f 6//1 7//1 1//1
f 7//2 6//2 3//2
f 12//10 13//10 10//10
f 16//11 14//11 15//11
f 16//5 15//5 9//5
f 8//6 2//6 1//6
f 2//7 9//7 4//7
f 7//12 3//12 10//12
f 2//13 8//13 7//13
f 16//14 9//14 14//14
f 7//15 10//15 14//15
f 14//16 9//16 2//16
f 6//17 1//17 4//17
f 4//18 11//18 13//18
f 13//19 12//19 6//19
f 11//20 15//20 13//20
f 12//21 5//21 6//21
