# Blender v2.76 (sub 0) OBJ File: 'pianobox.blend1'
# www.blender.org
o Cube
v 2.090264 1.252967 -1.000000
v 2.090264 -1.247033 -1.000000
v 2.090265 1.252967 -0.009001
v 2.090263 -1.247034 -0.009001
v 2.090264 -0.247033 -1.000000
v 2.090263 -1.247034 -0.513447
v 2.090263 -1.247034 -0.509001
v 2.090264 0.252967 -1.000000
v 0.800000 -1.247033 -1.000000
v 0.799999 -1.247034 -0.009001
v 0.799999 -1.247034 -0.513447
v 0.799999 -1.247034 -0.509001
v 2.090263 -1.247034 -0.259001
v 1.445131 -1.247034 -0.009001
v 1.445131 -1.247034 -0.509001
v 0.799999 -1.247034 -0.259001
v 2.090263 -1.247034 -0.134001
v 1.122565 -1.247034 -0.009001
v 1.122565 -1.247034 -0.509001
v 0.799999 -1.247034 -0.384001
v 2.090263 -1.247034 -0.384001
v 1.767697 -1.247034 -0.009001
v 1.767697 -1.247034 -0.509001
v 0.799999 -1.247034 -0.134001
v 1.767697 -1.393534 -0.134001
v 1.767697 -1.393534 -0.384001
v 1.122565 -1.393534 -0.384001
v 1.122565 -1.393534 -0.134001
v 1.445132 -1.247033 -1.000000
v 2.090264 -1.247033 -0.750000
v 0.800000 -1.247033 -0.750000
v 1.122566 -1.247033 -1.000000
v 2.090264 -1.247033 -0.625000
v 0.800000 -1.247033 -0.875000
v 1.767698 -1.247033 -1.000000
v 2.090264 -1.247033 -0.875000
v 0.800000 -1.247033 -0.625000
v 1.767698 -1.394530 -0.662060
v 1.767698 -1.394530 -0.912060
v 1.122566 -1.394530 -0.912060
v 1.122566 -1.394530 -0.662060
v 2.090264 -0.122033 -1.533638
v 2.090264 0.127967 -1.533638
v 1.045132 -0.122033 -1.533638
v 2.090264 0.002967 -1.533638
v 1.045132 0.002967 -1.533638
v 1.977637 0.252967 -1.000000
v 1.977914 -0.120023 -1.528475
v 1.977637 0.127967 -1.533638
v 1.977637 0.252967 -1.000000
v 1.977637 0.002967 -1.533638
v 1.983478 -0.240837 -0.981835
v -2.090264 1.252967 -1.000000
v -2.090264 -1.247033 -1.000000
v -2.090265 1.252967 -0.009001
v -2.090263 -1.247034 -0.009001
v -2.090264 -0.247033 -1.000000
v 0.000000 1.252967 -1.000000
v 0.000000 -1.247033 -1.000000
v -2.090263 -1.247034 -0.513447
v 0.000000 1.252967 -0.009001
v 0.000000 -1.247034 -0.009001
v 0.000000 -0.247033 -1.000000
v -2.090263 -1.247034 -0.509001
v -2.090264 0.252967 -1.000000
v -0.800000 -1.247033 -1.000000
v -0.799999 -1.247034 -0.009001
v -0.799999 -1.247034 -0.513447
v -0.799999 -1.247034 -0.509001
v -2.090263 -1.247034 -0.259001
v -1.445131 -1.247034 -0.009001
v -1.445131 -1.247034 -0.509001
v -0.799999 -1.247034 -0.259001
v -2.090263 -1.247034 -0.134001
v -1.122565 -1.247034 -0.009001
v -1.122565 -1.247034 -0.509001
v -0.799999 -1.247034 -0.384001
v -2.090263 -1.247034 -0.384001
v -1.767697 -1.247034 -0.009001
v -1.767697 -1.247034 -0.509001
v -0.799999 -1.247034 -0.134001
v -1.767697 -1.393534 -0.134001
v -1.767697 -1.393534 -0.384001
v -1.122565 -1.393534 -0.384001
v -1.122565 -1.393534 -0.134001
v -1.445132 -1.247033 -1.000000
v -2.090264 -1.247033 -0.750000
v -0.800000 -1.247033 -0.750000
v -1.122566 -1.247033 -1.000000
v -2.090264 -1.247033 -0.625000
v -0.800000 -1.247033 -0.875000
v -1.767698 -1.247033 -1.000000
v -2.090264 -1.247033 -0.875000
v -0.800000 -1.247033 -0.625000
v -1.767698 -1.394530 -0.662060
v -1.767698 -1.394530 -0.912060
v -1.122566 -1.394530 -0.912060
v -1.122566 -1.394530 -0.662060
v -2.090264 -0.122033 -1.533638
v -2.090264 0.127967 -1.533638
v 0.000000 -0.122033 -1.533638
v -1.045132 -0.122033 -1.533638
v 0.000000 0.002967 -1.533638
v -2.090264 0.002967 -1.533638
v -1.045132 0.002967 -1.533638
v -1.977637 0.252967 -1.000000
v -1.977914 -0.120023 -1.528475
v -1.977637 0.127967 -1.533638
v -1.977637 0.252967 -1.000000
v -1.977637 0.002967 -1.533638
v -1.983478 -0.240837 -0.981835
v 2.132123 1.252967 -1.026162
v 2.124443 -1.268395 -1.021362
v 2.132124 1.252967 0.017161
v 2.124442 -1.268396 0.012360
v 2.096967 -0.251813 -1.001119
v 2.083048 -1.245086 -0.509262
v 2.082431 -1.243287 -0.507094
v 2.096967 0.257746 -1.001119
v 0.804543 -1.241743 -0.997635
v 0.795382 -1.241262 -0.008950
v 0.807215 -1.245086 -0.509262
v 0.795797 -1.241780 -0.506328
v 2.082164 -1.243159 -0.257998
v 1.438210 -1.242245 -0.008959
v 1.438657 -1.242554 -0.506721
v 0.795501 -1.241410 -0.257545
v 2.084387 -1.241980 -0.135618
v 1.124539 -1.242922 -0.013820
v 1.124539 -1.242922 -0.504183
v 0.805875 -1.241980 -0.382385
v 2.084387 -1.241980 -0.382385
v 1.765723 -1.242922 -0.013820
v 1.765723 -1.242922 -0.504183
v 0.805875 -1.241980 -0.135618
v 1.764878 -1.387839 -0.136472
v 1.764878 -1.387839 -0.381531
v 1.125385 -1.387838 -0.381531
v 1.125384 -1.387839 -0.136472
v 1.439575 -1.243187 -0.996154
v 2.082803 -1.243464 -0.747323
v 0.806097 -1.241825 -0.750000
v 1.122566 -1.243729 -0.994457
v 2.084167 -1.241825 -0.625000
v 0.806097 -1.241825 -0.875000
v 1.765436 -1.243809 -0.994592
v 2.084053 -1.242118 -0.873444
v 0.806096 -1.241825 -0.625000
v 1.762792 -1.390556 -0.658003
v 1.764747 -1.389104 -0.909093
v 1.124910 -1.388864 -0.909340
v 1.127471 -1.390556 -0.658003
v 2.096360 -0.125269 -1.537720
v 2.096360 0.131202 -1.537720
v 1.045132 -0.122033 -1.540092
v 2.097565 0.002967 -1.538202
v 1.045132 0.002967 -1.540092
v 1.970810 0.257683 -1.001096
v 1.967589 -0.120055 -1.528454
v 1.971524 0.131192 -1.537719
v 1.969980 0.251031 -0.996128
v 1.968415 0.002938 -1.536541
v 1.973153 -0.240869 -0.981814
v -2.132123 1.252967 -1.026162
v -2.124443 -1.268395 -1.021362
v -2.132124 1.252967 0.017161
v -2.124442 -1.268396 0.012360
v -2.096967 -0.251813 -1.001119
v 0.000000 1.252967 -1.037000
v 0.000000 -1.273196 -1.026162
v -2.083048 -1.245086 -0.509262
v 0.000000 1.252967 0.027999
v 0.000000 -1.273196 0.017161
v 0.000000 -0.253317 -1.001472
v -2.082431 -1.243287 -0.507094
v -2.096967 0.257746 -1.001119
v -0.804543 -1.241743 -0.997635
v -0.795382 -1.241262 -0.008950
v -0.807215 -1.245086 -0.509262
v -0.795797 -1.241780 -0.506328
v -2.082164 -1.243159 -0.257998
v -1.438210 -1.242245 -0.008959
v -1.438657 -1.242554 -0.506721
v -0.795501 -1.241410 -0.257545
v -2.084387 -1.241980 -0.135618
v -1.124539 -1.242922 -0.013820
v -1.124539 -1.242922 -0.504183
v -0.805875 -1.241980 -0.382385
v -2.084387 -1.241980 -0.382385
v -1.765723 -1.242922 -0.013820
v -1.765723 -1.242922 -0.504183
v -0.805875 -1.241980 -0.135618
v -1.764878 -1.387839 -0.136472
v -1.764878 -1.387839 -0.381531
v -1.125385 -1.387838 -0.381531
v -1.125384 -1.387839 -0.136472
v -1.439575 -1.243187 -0.996154
v -2.082803 -1.243464 -0.747323
v -0.806097 -1.241825 -0.750000
v -1.122566 -1.243729 -0.994457
v -2.084167 -1.241825 -0.625000
v -0.806097 -1.241825 -0.875000
v -1.765436 -1.243809 -0.994592
v -2.084053 -1.242118 -0.873444
v -0.806096 -1.241825 -0.625000
v -1.762792 -1.390556 -0.658003
v -1.764747 -1.389104 -0.909093
v -1.124910 -1.388864 -0.909340
v -1.127471 -1.390556 -0.658003
v -2.096360 -0.125269 -1.537720
v -2.096360 0.131202 -1.537720
v 0.000000 -0.126042 -1.538695
v -1.045132 -0.122033 -1.540092
v 0.000000 0.002967 -1.540092
v -2.097565 0.002967 -1.538202
v -1.045132 0.002967 -1.540092
v -1.970810 0.257683 -1.001096
v -1.967589 -0.120055 -1.528454
v -1.971524 0.131192 -1.537719
v -1.969980 0.251031 -0.996128
v -1.968415 0.002938 -1.536541
v -1.973153 -0.240869 -0.981814
vt 1.000000 0.000000
vt 1.000000 1.000000
vt 0.000000 1.000000
vt 0.000000 0.000000
vt 0.933013 0.250000
vt 0.500000 0.000000
vt 0.066987 0.750000
vt 0.500000 1.000000
vt 0.933013 0.750000
vt 0.066987 0.250000
vt 0.975528 0.654508
vt 0.206107 0.095492
vt 0.024472 0.654509
vt 0.793893 0.095491
vn 0.000000 -1.000000 -0.000000
vn 0.415800 -0.909400 0.000000
vn 0.315800 -0.485900 -0.815000
vn 0.000000 -0.512100 -0.858900
vn -0.415800 -0.909400 -0.000000
vn 0.000000 0.709800 -0.704400
vn 0.413500 -0.910500 0.000000
vn 0.282800 -0.622600 -0.729700
vn -0.000000 -0.649100 -0.760700
vn -0.282800 -0.622600 -0.729700
vn -0.413500 -0.910500 0.000000
vn -0.282800 -0.622600 0.729700
vn -0.000000 -0.649100 0.760700
vn 0.282800 -0.622600 0.729700
vn -0.315800 -0.485900 -0.815000
vn 0.000000 1.000000 0.005800
vn -0.419900 0.907600 -0.000900
vn -0.313500 0.482700 0.817800
vn -0.000100 0.507200 0.861900
vn 0.419600 0.907700 0.001800
vn -0.005500 0.505800 0.862600
vn 0.421700 0.906500 0.021500
vn 0.000000 -0.714900 0.699200
vn -0.421700 0.906500 0.021500
vn 0.000000 1.000000 0.000000
vn -0.415300 0.909700 0.000000
vn -0.281500 0.620900 0.731600
vn 0.000000 0.646000 0.763300
vn 0.281500 0.620900 0.731600
vn 0.415300 0.909700 0.000000
vn 0.281500 0.620900 -0.731600
vn 0.000000 0.646000 -0.763300
vn -0.281500 0.620900 -0.731600
vn -0.000400 1.000000 0.006700
vn 0.419900 0.907600 -0.000900
vn 0.313500 0.482700 0.817800
vn -0.000200 0.505900 0.862600
vn -0.418800 0.908100 0.000000
vn 0.005500 0.505800 0.862600
vn 0.620500 0.784200 0.000000
vn 0.000000 0.906600 -0.422000
vn 0.167300 0.876000 -0.452300
vn 0.000000 0.858900 -0.512100
vn -0.649500 0.760300 0.008700
vn -0.649500 0.760300 0.000000
vn 0.000000 0.408000 -0.913000
vn -0.276500 0.960600 0.029700
vn 0.649500 0.760300 0.000000
vn 0.652000 0.758200 0.000000
vn 0.219300 0.784800 -0.579700
vn 0.000000 0.760700 -0.649100
vn -0.293500 0.583400 -0.757300
vn -0.652100 0.758200 -0.000000
vn -0.219300 0.784700 0.579800
vn 0.000000 0.760700 0.649100
vn 0.293400 0.583500 0.757300
vn -0.649500 0.760300 -0.001200
vn 0.000000 0.906600 -0.421900
vn -0.288800 0.600900 -0.745300
vn 0.758700 0.651400 0.000000
vn -0.010500 0.858900 -0.512100
vn -0.276500 0.960500 0.029700
vn -0.652000 0.758200 0.000000
vn -0.293500 0.583500 -0.757300
vn 0.652100 0.758200 -0.000000
vn 0.293500 0.583500 0.757300
vn -0.219300 0.784700 0.579700
vn 0.000400 1.000000 0.006700
vn -0.418300 0.908300 0.002000
vn 0.000200 0.505900 0.862600
vn 0.418800 0.908100 0.000000
vn 0.420000 0.907500 0.000000
vn 0.418400 0.908300 -0.004700
vn 0.418300 0.908300 0.002000
vn 0.000100 0.507200 0.861900
vn -0.418400 0.908300 -0.004700
vn -0.419600 0.907700 0.001800
vn -0.420000 0.907500 0.000000
vn 0.649500 0.760300 -0.001200
vn 0.288800 0.600900 -0.745300
vn -0.758700 0.651400 0.000000
vn 0.010500 0.858900 -0.512100
vn 0.276500 0.960500 0.029700
vn 0.652100 0.758100 0.000000
vn 0.293500 0.583500 -0.757300
vn -0.219300 0.784800 -0.579700
vn -0.293500 0.583500 0.757300
vn 0.219300 0.784700 0.579700
vn -0.620500 0.784200 0.000000
vn -0.167300 0.876000 -0.452300
vn 0.649500 0.760300 0.008700
vn 0.276500 0.960600 0.029700
vn -0.652100 0.758100 0.000000
vn 0.219300 0.784700 0.579800
vn -0.293400 0.583500 0.757300
vn 0.000000 0.707100 -0.707100
vn -0.301500 0.904500 -0.301500
vn -0.577300 0.577300 -0.577300
vn 0.000000 0.707100 0.707100
vn -0.577300 0.577300 0.577300
vn -0.301500 0.904500 0.301500
vn 0.577300 0.577300 -0.577300
vn 0.577300 0.577300 0.577300
vn 0.301500 0.904500 0.301500
vn 0.301500 0.904500 -0.301500
vn 0.577900 -0.578300 0.575800
vn 0.579500 0.576300 0.576200
vn 0.000000 0.704900 0.709300
vn 0.000000 -0.708600 0.705600
vn 0.000000 -0.708600 -0.705600
vn 0.000000 0.704900 -0.709300
vn 0.579500 0.576300 -0.576200
vn 0.577900 -0.578300 -0.575800
vn -0.577900 -0.578300 0.575800
vn -0.577900 -0.578300 -0.575800
vn -0.579500 0.576300 -0.576200
vn -0.579500 0.576300 0.576200
vn 0.001200 0.621200 0.783600
vn 0.000000 0.527200 0.849700
vn -0.190800 0.186100 0.963800
vn 0.771700 -0.635800 0.014400
vn 0.210900 -0.166800 0.963200
vn 0.572200 -0.629500 0.525600
vn -0.707100 0.000000 0.707100
vn -0.590400 -0.501400 0.632400
vn 0.000000 -0.707100 0.707100
vn -0.190800 -0.186100 0.963800
vn 0.590400 -0.501400 0.632400
vn 0.190800 0.186100 0.963800
vn -0.210900 -0.166800 0.963200
vn -0.771700 -0.635800 0.014400
vn 0.707100 0.000000 0.707100
vn -0.001300 -0.706700 0.707500
vn 0.190800 -0.186100 0.963800
vn 0.000000 -0.850500 0.526000
vn 0.001200 -0.624900 -0.780700
vn 0.587200 -0.504900 -0.632600
vn -0.585900 0.662500 0.466700
vn -0.654700 -0.099400 -0.749300
vn -0.560200 -0.636000 0.530700
vn 0.706800 0.001000 -0.707400
vn -0.582200 0.506800 -0.635700
vn 0.000800 -0.706800 -0.707400
vn 0.000800 0.706800 -0.707400
vn 0.587700 0.657500 0.471400
vn 0.588100 -0.657100 0.471500
vn -0.588100 -0.657100 0.471500
vn -0.587200 -0.504900 -0.632600
vn 0.585900 0.662500 0.466700
vn 0.560200 -0.636000 0.530700
vn 0.654700 -0.099400 -0.749300
vn -0.706800 0.001000 -0.707400
vn -0.587000 0.504800 -0.632900
vn 0.582200 0.506800 -0.635700
vn 0.000000 0.703500 -0.710600
vn -0.002100 -0.706400 -0.707800
vn -0.587700 0.657500 0.471400
vn -0.594700 0.499500 0.630000
vn 0.589700 -0.516300 -0.621100
vn -0.597900 -0.516600 -0.612900
vn 0.594700 0.499500 0.630000
vn -0.000800 0.706800 -0.707400
vn -0.589600 -0.516300 -0.621100
vn 0.597900 -0.516600 -0.612900
vn -0.572200 -0.629500 0.525600
vn 0.587000 0.504800 -0.632900
s off
f 38/1/1 41/2/1 40/3/1
f 36/1/2 33/2/2 38/3/2
f 39/4/3 35/1/3 36/2/3
f 39/1/4 40/2/4 32/3/4
f 40/5/5 41/6/5 31/7/5
f 40/4/4 9/1/4 32/2/4
f 11/4/5 37/1/5 41/2/5
f 6/1/6 38/2/6 41/3/6
f 38/4/2 33/1/2 6/2/2
f 27/1/1 26/2/1 25/3/1
f 17/1/7 25/2/7 26/3/7
f 26/4/8 23/1/8 21/2/8
f 26/1/9 27/2/9 19/3/9
f 19/4/10 27/1/10 20/2/10
f 20/4/11 27/1/11 28/2/11
f 28/4/12 18/1/12 24/2/12
f 28/1/13 25/2/13 22/3/13
f 25/4/14 17/1/14 22/2/14
f 97/3/1 98/2/1 95/1/1
f 95/3/5 90/2/5 93/1/5
f 96/4/15 93/2/15 92/1/15
f 89/3/4 97/2/4 96/1/4
f 88/7/2 97/5/2 91/8/2
f 97/4/4 89/2/4 66/1/4
f 68/4/2 98/2/2 94/1/2
f 98/3/6 95/2/6 60/1/6
f 95/4/5 60/2/5 90/1/5
f 82/3/1 83/2/1 84/1/1
f 83/3/11 82/2/11 74/1/11
f 83/4/10 78/2/10 80/1/10
f 76/3/9 84/2/9 83/1/9
f 76/4/8 77/2/8 84/1/8
f 77/4/7 81/3/7 85/2/7
f 85/4/14 81/2/14 75/1/14
f 79/3/13 82/2/13 85/1/13
f 82/4/12 79/2/12 74/1/12
f 152/2/16 149/1/16 150/4/16
f 149/3/17 144/2/17 147/1/17
f 147/2/18 146/1/18 150/4/18
f 151/2/19 150/1/19 146/4/19
f 152/6/20 151/5/20 142/7/20
f 143/2/21 120/1/21 151/4/21
f 152/2/22 148/1/22 122/4/22
f 152/3/23 149/2/23 117/1/23
f 117/2/24 144/1/24 149/4/24
f 137/2/25 138/1/25 139/4/25
f 136/2/26 128/1/26 132/4/26
f 132/2/27 134/1/27 137/4/27
f 130/3/28 138/2/28 137/1/28
f 131/2/29 138/1/29 130/4/29
f 139/2/30 138/1/30 131/4/30
f 135/2/31 129/1/31 139/4/31
f 136/2/32 139/1/32 129/4/32
f 133/2/33 128/1/33 136/4/33
f 209/2/34 208/3/34 207/4/34
f 204/1/35 201/2/35 206/3/35
f 203/1/36 204/2/36 207/4/36
f 208/2/37 200/3/37 203/4/37
f 208/5/38 199/7/38 202/8/38
f 177/1/39 200/2/39 208/4/39
f 205/1/24 209/2/24 179/4/24
f 171/1/23 206/2/23 209/3/23
f 201/1/22 171/2/22 206/4/22
f 194/2/25 193/3/25 196/4/25
f 193/2/30 194/3/30 189/4/30
f 191/1/29 189/2/29 194/4/29
f 194/1/28 195/2/28 187/3/28
f 195/1/27 188/2/27 187/4/27
f 196/2/26 192/3/26 188/4/26
f 186/1/33 192/2/33 196/4/33
f 193/2/32 190/3/32 186/4/32
f 185/1/31 190/2/31 193/4/31
f 33/2/40 36/1/40 147/1/40
f 6/1/41 11/4/41 122/4/41
f 35/1/42 146/1/42 147/2/42
f 32/3/43 143/3/43 146/4/43
f 34/8/44 145/8/44 120/9/44
f 31/7/45 142/7/45 145/8/45
f 31/7/45 37/10/45 148/10/45
f 32/2/46 9/1/46 120/1/46
f 11/4/47 122/4/47 148/1/47
f 6/2/48 33/1/48 144/1/48
f 21/4/49 132/4/49 128/1/49
f 23/1/50 134/1/50 132/2/50
f 19/3/51 130/3/51 134/4/51
f 19/4/52 20/2/52 131/2/52
f 24/3/53 135/3/53 131/4/53
f 18/1/54 129/1/54 135/2/54
f 18/4/55 22/3/55 133/3/55
f 22/2/56 17/1/56 128/1/56
f 90/2/57 201/2/57 204/1/57
f 60/1/58 171/1/58 179/4/58
f 92/1/59 93/2/59 204/2/59
f 89/3/43 92/4/43 203/4/43
f 91/8/60 66/9/60 177/9/60
f 91/8/48 202/8/48 199/7/48
f 88/7/48 199/7/48 205/10/48
f 89/2/61 200/2/61 177/1/61
f 68/4/48 94/1/48 205/1/48
f 60/2/62 171/2/62 201/1/62
f 74/1/63 185/1/63 189/4/63
f 80/1/64 78/2/64 189/2/64
f 76/3/51 80/4/51 191/4/51
f 76/4/50 187/4/50 188/2/50
f 77/4/65 188/4/65 192/3/65
f 75/1/66 81/2/66 192/2/66
f 79/3/55 75/4/55 186/4/55
f 79/2/67 190/2/67 185/1/67
f 39/4/1 38/1/1 40/3/1
f 39/4/2 36/1/2 38/3/2
f 35/4/4 39/1/4 32/3/4
f 31/7/5 34/8/5 40/5/5
f 9/9/5 40/5/5 34/8/5
f 41/6/5 37/10/5 31/7/5
f 11/4/6 6/1/6 41/3/6
f 28/4/1 27/1/1 25/3/1
f 21/4/7 17/1/7 26/3/7
f 23/4/9 26/1/9 19/3/9
f 24/3/11 20/4/11 28/2/11
f 18/4/13 28/1/13 22/3/13
f 96/4/1 97/3/1 95/1/1
f 96/4/5 95/3/5 93/1/5
f 92/4/4 89/3/4 96/1/4
f 66/9/2 91/8/2 97/5/2
f 88/7/2 94/10/2 98/6/2
f 98/6/2 97/5/2 88/7/2
f 68/4/6 98/3/6 60/1/6
f 85/4/1 82/3/1 84/1/1
f 78/4/11 83/3/11 74/1/11
f 80/4/9 76/3/9 83/1/9
f 84/1/7 77/4/7 85/2/7
f 75/4/13 79/3/13 85/1/13
f 151/3/68 152/2/68 150/4/68
f 150/4/69 149/3/69 147/1/69
f 143/3/70 151/2/70 146/4/70
f 145/8/71 142/7/71 151/5/71
f 148/10/72 152/6/72 142/7/72
f 151/5/73 120/9/73 145/8/73
f 122/4/23 152/3/23 117/1/23
f 136/3/25 137/2/25 139/4/25
f 137/3/26 136/2/26 132/4/26
f 134/4/28 130/3/28 137/1/28
f 135/3/30 139/2/30 131/4/30
f 133/3/32 136/2/32 129/4/32
f 206/1/16 209/2/16 207/4/16
f 207/4/74 204/1/74 206/3/74
f 207/1/75 208/2/75 203/4/75
f 202/8/76 177/9/76 208/5/76
f 208/5/77 209/6/77 199/7/77
f 205/10/78 199/7/78 209/6/78
f 179/4/23 171/1/23 209/3/23
f 195/1/25 194/2/25 196/4/25
f 185/1/30 193/2/30 189/4/30
f 191/4/28 194/1/28 187/3/28
f 195/1/26 196/2/26 188/4/26
f 196/1/32 193/2/32 186/4/32
f 144/2/79 33/2/79 147/1/79
f 117/1/58 6/1/58 122/4/58
f 36/2/80 35/1/80 147/2/80
f 35/4/43 32/3/43 146/4/43
f 9/9/81 34/8/81 120/9/81
f 34/8/45 31/7/45 145/8/45
f 142/7/45 31/7/45 148/10/45
f 143/2/82 32/2/82 120/1/82
f 37/1/45 11/4/45 148/1/45
f 117/2/83 6/2/83 144/1/83
f 17/1/84 21/4/84 128/1/84
f 21/2/85 23/1/85 132/2/85
f 23/4/51 19/3/51 134/4/51
f 130/4/86 19/4/86 131/2/86
f 20/4/53 24/3/53 131/4/53
f 24/2/87 18/1/87 135/2/87
f 129/4/55 18/4/55 133/3/55
f 133/2/88 22/2/88 128/1/88
f 93/1/89 90/2/89 204/1/89
f 68/4/41 60/1/41 179/4/41
f 203/1/90 92/1/90 204/2/90
f 200/3/43 89/3/43 203/4/43
f 202/8/91 91/8/91 177/9/91
f 88/7/48 91/8/48 199/7/48
f 94/10/48 88/7/48 205/10/48
f 66/1/46 89/2/46 177/1/46
f 179/4/92 68/4/92 205/1/92
f 90/1/45 60/2/45 201/1/45
f 78/4/93 74/1/93 189/4/93
f 191/1/86 80/1/86 189/2/86
f 187/3/51 76/3/51 191/4/51
f 77/2/85 76/4/85 188/2/85
f 81/3/65 77/4/65 192/3/65
f 186/1/94 75/1/94 192/2/94
f 190/3/55 79/3/55 186/4/55
f 74/1/95 79/2/95 185/1/95
s 1
f 61/4/96 3/1/97 4/2/98
f 59/4/99 62/1/96 4/2/98
f 59/4/99 2/1/100 1/2/101
f 2/1/100 4/2/98 3/3/97
f 61/4/96 62/3/96 56/2/102
f 59/4/99 54/3/103 56/2/102
f 59/4/99 58/3/99 53/2/104
f 55/3/105 56/2/102 54/1/103
f 115/2/106 114/1/107 172/4/108
f 115/2/106 173/1/109 170/4/110
f 169/3/111 112/2/112 113/1/113
f 114/3/107 115/2/106 113/1/113
f 167/2/114 173/3/109 172/4/108
f 167/2/114 165/3/115 170/4/110
f 165/1/115 164/2/116 169/3/111
f 165/1/115 167/2/114 166/3/117
f 3/3/97 114/3/107 112/4/112
f 3/1/97 61/4/96 172/4/108
f 1/2/101 112/2/112 169/3/111
f 55/3/105 53/4/104 164/4/116
f 55/1/105 166/1/117 172/4/108
f 53/2/104 58/3/99 169/3/111
f 62/3/96 61/4/96 4/2/98
f 2/3/100 59/4/99 4/2/98
f 58/3/99 59/4/99 1/2/101
f 1/4/101 2/1/100 3/3/97
f 55/1/105 61/4/96 56/2/102
f 62/1/96 59/4/99 56/2/102
f 54/1/103 59/4/99 53/2/104
f 53/4/104 55/3/105 54/1/103
f 173/3/109 115/2/106 172/4/108
f 113/3/113 115/2/106 170/4/110
f 170/4/110 169/3/111 113/1/113
f 112/4/112 114/3/107 113/1/113
f 166/1/117 167/2/114 172/4/108
f 173/1/109 167/2/114 170/4/110
f 170/4/110 165/1/115 169/3/111
f 164/4/116 165/1/115 166/3/117
f 1/4/101 3/3/97 112/4/112
f 114/1/107 3/1/97 172/4/108
f 58/3/99 1/2/101 169/3/111
f 166/3/117 55/3/105 164/4/116
f 61/4/96 55/1/105 172/4/108
f 164/2/116 53/2/104 169/3/111
s 2
f 101/1/118 63/2/119 5/3/120
f 51/11/121 47/12/122 52/13/123
f 51/1/121 45/2/124 43/3/125
f 46/5/99 103/6/99 44/7/126
f 8/14/127 43/12/125 45/13/124
f 8/1/127 47/2/122 49/3/128
f 57/3/129 63/2/119 101/1/118
f 106/12/130 108/14/125 110/11/131
f 100/3/128 104/2/132 110/1/131
f 102/7/133 105/5/99 104/9/132
f 104/13/132 65/14/134 57/11/129
f 108/3/125 106/2/130 65/1/134
f 174/2/135 212/1/136 153/4/137
f 158/12/138 162/11/139 163/13/140
f 156/2/141 162/1/139 160/4/142
f 155/7/143 157/5/144 153/8/137
f 119/14/145 116/11/146 156/13/141
f 160/3/142 158/2/138 119/1/145
f 174/2/135 168/3/147 210/4/148
f 217/12/149 222/13/150 221/11/151
f 215/2/152 211/3/153 219/4/154
f 214/6/155 212/10/136 213/7/156
f 176/14/157 215/13/152 168/11/147
f 176/1/157 217/2/149 219/3/154
f 42/4/158 153/4/137 212/1/136
f 5/3/120 63/2/119 174/2/135
f 101/10/118 212/10/136 155/7/143
f 42/8/158 44/7/126 155/7/143
f 45/9/124 156/9/141 157/5/144
f 46/5/99 157/5/144 214/6/155
f 48/8/159 52/13/123 163/13/140
f 51/11/121 48/8/159 159/8/160
f 51/1/121 162/1/139 156/2/141
f 47/12/122 158/12/138 163/13/140
f 8/14/127 5/11/120 116/11/146
f 47/2/122 8/1/127 119/1/145
f 99/4/161 101/1/118 212/1/136
f 57/3/129 168/3/147 174/2/135
f 102/7/133 213/7/156 212/10/136
f 99/8/161 210/8/148 213/7/156
f 104/9/132 105/5/99 216/5/162
f 103/6/99 214/6/155 216/5/162
f 107/8/163 218/8/164 222/13/150
f 110/11/131 221/11/151 218/8/164
f 110/1/131 104/2/132 215/2/152
f 106/12/130 111/13/165 222/13/150
f 65/14/134 176/14/157 168/11/147
f 106/2/130 217/2/149 176/1/157
f 42/4/158 101/1/118 5/3/120
f 52/13/123 48/8/159 51/11/121
f 51/11/121 49/14/128 47/12/122
f 49/4/128 51/1/121 43/3/125
f 44/7/126 42/8/158 45/9/124
f 45/9/124 46/5/99 44/7/126
f 103/6/99 101/10/118 44/7/126
f 45/13/124 42/8/158 5/11/120
f 5/11/120 8/14/127 45/13/124
f 43/4/125 8/1/127 49/3/128
f 99/4/161 57/3/129 101/1/118
f 110/11/131 107/8/163 111/13/165
f 111/13/165 106/12/130 110/11/131
f 108/4/125 100/3/128 110/1/131
f 104/9/132 99/8/161 102/7/133
f 102/7/133 101/10/118 103/6/99
f 103/6/99 105/5/99 102/7/133
f 57/11/129 99/8/161 104/13/132
f 104/13/132 100/12/128 65/14/134
f 100/4/128 108/3/125 65/1/134
f 116/3/146 174/2/135 153/4/137
f 159/8/160 163/13/140 162/11/139
f 158/12/138 160/14/142 162/11/139
f 154/3/166 156/2/141 160/4/142
f 155/7/143 212/10/136 214/6/155
f 156/9/141 153/8/137 157/5/144
f 214/6/155 157/5/144 155/7/143
f 153/8/137 156/13/141 116/11/146
f 154/12/166 119/14/145 156/13/141
f 154/4/166 160/3/142 119/1/145
f 212/1/136 174/2/135 210/4/148
f 218/8/164 221/11/151 222/13/150
f 219/14/154 217/12/149 221/11/151
f 221/1/151 215/2/152 219/4/154
f 210/8/148 215/9/152 216/5/162
f 216/5/162 214/6/155 213/7/156
f 213/7/156 210/8/148 216/5/162
f 210/8/148 168/11/147 215/13/152
f 176/14/157 211/12/153 215/13/152
f 211/4/153 176/1/157 219/3/154
f 101/1/118 42/4/158 212/1/136
f 116/3/146 5/3/120 174/2/135
f 44/7/126 101/10/118 155/7/143
f 153/8/137 42/8/158 155/7/143
f 46/5/99 45/9/124 157/5/144
f 103/6/99 46/5/99 214/6/155
f 159/8/160 48/8/159 163/13/140
f 162/11/139 51/11/121 159/8/160
f 45/2/124 51/1/121 156/2/141
f 52/13/123 47/12/122 163/13/140
f 119/14/145 8/14/127 116/11/146
f 158/2/138 47/2/122 119/1/145
f 210/4/148 99/4/161 212/1/136
f 63/2/119 57/3/129 174/2/135
f 101/10/118 102/7/133 212/10/136
f 102/7/133 99/8/161 213/7/156
f 215/9/152 104/9/132 216/5/162
f 105/5/99 103/6/99 216/5/162
f 111/13/165 107/8/163 222/13/150
f 107/8/163 110/11/131 218/8/164
f 221/1/151 110/1/131 215/2/152
f 217/12/149 106/12/130 222/13/150
f 57/11/129 65/14/134 168/11/147
f 65/1/134 106/2/130 176/1/157
l 5 2
l 6 7
l 59 63
l 12 11
l 49 50
l 57 54
l 60 64
l 69 68
l 108 109
l 116 113
l 117 118
l 170 174
l 123 122
l 160 161
l 168 165
l 171 175
l 180 179
l 219 220
