# Blender v2.76 (sub 0) OBJ File: 'pianocover.blend'
# www.blender.org
o Plane
v 0.000926 0.002122 -0.002366
v 2.614200 0.002122 -0.002366
v 0.000926 0.002122 -0.993587
v 2.614200 0.002122 -0.993587
v -0.018146 0.079498 0.006767
v 2.637258 0.079498 0.006767
v -0.018146 0.079498 -1.001983
v 2.637258 0.079498 -1.001983
vt 0.000000 0.000000
vn -0.640000 0.482400 0.598000
vn 0.652600 0.468900 0.595100
vn 0.653400 0.470900 -0.592600
vn 0.482700 -0.676700 -0.555900
vn 0.482900 -0.679300 0.552500
vn -0.500300 -0.668700 0.550000
vn -0.640700 0.484600 -0.595500
vn -0.500000 -0.666100 -0.553400
s 1
f 5/1/1 6/1/2 8/1/3
f 4/1/4 2/1/5 1/1/6
f 8/1/3 6/1/2 2/1/5
f 2/1/5 6/1/2 5/1/1
f 1/1/6 5/1/1 7/1/7
f 7/1/7 8/1/3 4/1/4
f 7/1/7 5/1/1 8/1/3
f 3/1/8 4/1/4 1/1/6
f 4/1/4 8/1/3 2/1/5
f 1/1/6 2/1/5 5/1/1
f 3/1/8 1/1/6 7/1/7
f 3/1/8 7/1/7 4/1/4
