# Blender v2.76 (sub 0) OBJ File: 'rskey.blend'
# www.blender.org
o C_Cube.001
v -0.001011 0.002054 -0.523495
v -0.001011 0.002054 -0.001594
v -0.001011 0.106120 -0.523495
v -0.001011 0.106120 -0.001594
v -0.106219 0.002054 -0.523495
v -0.071491 0.002054 -0.001594
v -0.106219 0.106120 -0.523495
v -0.071491 0.106120 -0.001594
v -0.071491 0.106120 -0.239027
v -0.071491 0.002054 -0.239027
v -0.105917 0.101686 -0.239027
v -0.105917 -0.002380 -0.239027
vt 0.604825 0.503001
vt 0.604825 0.336889
vt 0.669431 0.343967
vt 0.604415 0.503001
vt 0.501571 0.503001
vt 0.501571 0.336889
vt 0.999795 0.000205
vt 0.999795 0.833273
vt 0.833683 0.833273
vt 0.166707 0.715881
vt 0.332819 0.715881
vt 0.332819 0.336889
vt 0.000205 0.339480
vt 0.000205 0.793255
vt 0.166297 0.790664
vt 0.501161 0.503001
vt 0.501161 0.336889
vt 0.333229 0.336889
vt 0.833273 0.336479
vt 0.000205 0.336479
vt 0.379198 0.233635
vt 0.379198 0.065293
vt 0.833273 0.168137
vt 0.833273 0.000205
vt 0.669431 0.510079
vt 0.604415 0.336889
vt 0.833683 0.000205
vt 0.166707 0.336889
vt 0.166297 0.336889
vt 0.333229 0.503001
vt 0.379553 0.169029
vt 0.833273 0.168547
vt 0.000205 0.233635
vt 0.000205 0.065293
vt 0.000205 0.168137
vt 0.379553 0.000687
vn 0.000000 0.000000 1.000000
vn 1.000000 0.000000 0.000000
vn -1.000000 0.000000 0.000000
vn -1.000000 0.000000 0.001100
vn 0.000000 0.000000 -1.000000
vn -0.000000 -1.000000 -0.000000
vn 0.000000 1.000000 0.000000
vn 0.127700 -0.991700 -0.015600
vn -0.127700 0.991700 0.015600
s off
f 10/1/1 9/2/1 11/3/1
f 6/4/1 2/5/1 4/6/1
f 2/7/2 1/8/2 3/9/2
f 9/10/3 10/11/3 6/12/3
f 11/13/4 7/14/4 5/15/4
f 5/16/5 7/17/5 3/18/5
f 1/19/6 2/20/6 10/21/6
f 9/22/7 3/23/7 7/24/7
f 12/25/1 10/1/1 11/3/1
f 8/26/1 6/4/1 4/6/1
f 4/27/2 2/7/2 3/9/2
f 8/28/3 9/10/3 6/12/3
f 12/29/4 11/13/4 5/15/4
f 1/30/5 5/16/5 3/18/5
f 10/21/8 12/31/8 5/32/8
f 5/32/6 1/19/6 10/21/6
f 2/20/6 6/33/6 10/21/6
f 9/22/7 8/34/7 4/35/7
f 7/24/9 11/36/9 9/22/9
f 4/35/7 3/23/7 9/22/7
